<svg width="324" height="260" viewBox="0 0 324 260" fill="none" xmlns="http://www.w3.org/2000/svg">
<path d="M197.5 195.5C199.359 195.5 200.922 194.231 201.371 192.513C200 189 198.906 186.037 199.006 183.239C199.118 180.134 200.683 177.312 204.593 174.147C203.098 170.672 202.62 167.837 203.22 164.944C203.826 162.029 205.516 159.119 208.205 155.48C207.73 153.621 207.473 152.061 207.516 150.794C207.56 149.465 207.939 148.396 208.806 147.666C209.655 146.952 210.884 146.64 212.456 146.607C213.954 146.575 215.831 146.795 218.127 147.226C220.062 143.22 222.225 141.364 224.985 140.837C226.377 140.571 227.881 140.651 229.52 140.912C231.094 141.162 232.826 141.585 234.732 142.05L234.817 142.071C237.179 141.228 239.302 140.67 241.5 140.348V118H175V195.5H197.5Z" fill="#6F4AD9"/>
<path d="M215.5 195.5H225.534L227.838 189.659L228.35 189.991C232.354 192.581 236.964 193.625 241.5 193.788V171.5C241.5 169.015 239.485 167 237 167H236.5C233.462 167 231 164.538 231 161.5C231 158.462 233.462 156 236.5 156H237C239.485 156 241.5 153.985 241.5 151.5V141.359C239.368 141.682 237.311 142.235 235.014 143.062L234.872 143.114L234.516 143.027L234.516 143.027C232.592 142.557 230.896 142.143 229.363 141.899C227.777 141.647 226.402 141.584 225.173 141.819C222.773 142.277 220.773 143.905 218.867 148.001L218.702 148.355L218.318 148.281C215.871 147.806 213.951 147.575 212.478 147.606C210.997 147.638 210.042 147.933 209.45 148.432C208.875 148.915 208.554 149.666 208.515 150.828C208.475 151.999 208.726 153.524 209.232 155.46L209.293 155.692L209.15 155.885C206.392 159.595 204.768 162.408 204.199 165.148C203.636 167.862 204.096 170.57 205.661 174.095L205.819 174.45L205.514 174.69C201.509 177.855 200.105 180.495 200.006 183.275C199.93 185.403 200.607 187.66 201.625 190.382C202.133 188.159 204.123 186.5 206.5 186.5C209.261 186.5 211.5 188.739 211.5 191.5C211.5 193.709 213.291 195.5 215.5 195.5Z" fill="#157D15"/>
<path d="M226.609 195.5H227.983C227.908 194.546 227.831 193.579 227.752 192.6L226.609 195.5Z" fill="black"/>
<path d="M228.656 191.353C228.769 192.761 228.879 194.143 228.986 195.5H241.5V194.789C237.133 194.636 232.652 193.689 228.656 191.353Z" fill="#6A095B"/>
<path d="M175 197V259.5H227.335L227.615 258.812C229.707 253.67 230.477 246.277 230.327 235.343C230.194 225.606 229.333 213.118 228.062 197H226.214L223.99 202.638L223.903 202.717C221.847 204.57 219.98 206.151 218.206 207.174C216.426 208.201 214.682 208.699 212.894 208.299C211.117 207.9 209.403 206.636 207.625 204.379C205.86 202.139 203.993 198.873 201.908 194.362C201.065 195.932 199.407 197 197.5 197H175Z" fill="#6F4AD9"/>
<path d="M202.413 192.932L202.589 193.383L202.765 193.833C204.858 198.374 206.703 201.593 208.41 203.76C210.121 205.931 211.654 206.996 213.113 207.323C214.562 207.647 216.042 207.267 217.707 206.307C219.354 205.357 221.124 203.872 223.146 202.053L225.139 197H215.5C212.739 197 210.5 194.761 210.5 192C210.5 189.791 208.709 188 206.5 188C204.291 188 202.5 189.791 202.5 192C202.5 192.319 202.47 192.63 202.413 192.932Z" fill="#157D15"/>
<path d="M241 258.5V233.701C241 230.663 243.462 228.201 246.5 228.201H250.303C252.243 228.201 253.816 226.628 253.816 224.688C253.816 222.748 252.243 221.175 250.303 221.175H246.5C243.462 221.175 241 218.713 241 215.675V197H229.065C230.333 213.08 231.193 225.574 231.327 235.329C231.471 245.816 230.778 253.202 228.809 258.5H241Z" fill="#6A095B"/>
<path d="M242.5 194.81V196H260.578C260.719 194.429 260.864 192.823 261.012 191.183C258.196 192.292 253.127 193.933 247.362 194.557C245.786 194.728 244.155 194.823 242.5 194.81Z" fill="#6A095B"/>
<path d="M261.625 195.52L261.582 196H261.79C261.728 195.848 261.673 195.686 261.625 195.52Z" fill="black"/>
<path d="M262.925 196H263.096C263.193 195.931 263.345 195.787 263.549 195.496C263.859 195.054 264.231 194.359 264.668 193.333C265.108 192.301 265.404 191.641 265.589 191.307C265.635 191.224 265.685 191.141 265.738 191.073C265.763 191.04 265.803 190.993 265.856 190.95C265.897 190.916 266.021 190.824 266.204 190.825C266.437 190.827 266.584 190.973 266.649 191.081C266.704 191.173 266.72 191.261 266.726 191.302C266.74 191.394 266.737 191.49 266.732 191.564C266.713 191.859 266.62 192.391 266.508 193.035L266.499 193.085C266.38 193.77 266.233 194.615 266.099 195.549C266.078 195.698 266.057 195.848 266.037 196H275.727C277.917 196 279.707 197.712 279.831 199.871C280.968 196.83 281.628 194.096 282.357 190.316L282.527 189.431L283.188 190.044C284.842 191.581 286.223 192.779 287.317 193.432C287.866 193.761 288.293 193.921 288.613 193.948C288.899 193.973 289.095 193.894 289.263 193.697C289.457 193.468 289.641 193.044 289.756 192.318C289.87 191.601 289.909 190.644 289.86 189.405C289.762 186.928 289.316 183.395 288.476 178.541L288.443 178.347L288.55 178.182C291.208 174.119 292.816 171.052 292.985 168.033C293.153 165.047 291.914 162.001 288.584 157.984L288.452 157.825L288.471 157.619C288.657 155.615 288.77 153.913 288.715 152.508C288.66 151.096 288.436 150.046 287.994 149.31C287.57 148.603 286.919 148.139 285.88 147.946C284.819 147.75 283.362 147.838 281.375 148.271C276.212 150.117 273.516 151.181 272.068 151.89C271.342 152.246 270.965 152.497 270.753 152.689C270.562 152.862 270.497 152.993 270.425 153.173L269.721 154.936L269.465 153.055C269.137 150.641 268.771 148.61 268.235 146.942C267.699 145.277 267.002 144.006 266.034 143.084C264.114 141.258 260.952 140.653 255.216 141.527L255.154 141.537L255.09 141.53C249.716 140.984 245.948 140.821 242.5 141.225V151.5C242.5 154.538 240.038 157 237 157H236.5C234.015 157 232 159.015 232 161.5C232 163.985 234.015 166 236.5 166H237C240.038 166 242.5 168.462 242.5 171.5V193.81C244.111 193.823 245.706 193.731 247.254 193.563C253.464 192.89 258.862 191.011 261.391 189.95L262.084 189.658V190.412L262.084 190.418L262.085 190.441C262.085 190.461 262.085 190.492 262.085 190.532C262.086 190.611 262.088 190.728 262.091 190.874C262.098 191.166 262.112 191.574 262.139 192.038C262.194 192.974 262.303 194.106 262.513 194.97C262.62 195.408 262.742 195.731 262.868 195.923C262.889 195.955 262.908 195.98 262.925 196Z" fill="#157D15"/>
<path d="M324 196V118H242.5V140.218C245.999 139.822 249.801 139.989 255.129 140.529C260.878 139.66 264.451 140.197 266.723 142.36C267.855 143.437 268.621 144.878 269.187 146.636C269.661 148.109 270.001 149.826 270.293 151.773C270.601 151.537 271.027 151.287 271.628 150.992C273.137 150.253 275.893 149.168 281.069 147.319L281.099 147.308L281.13 147.301C283.182 146.852 284.802 146.729 286.062 146.963C287.349 147.202 288.264 147.814 288.852 148.796C289.423 149.748 289.657 150.999 289.715 152.469C289.77 153.894 289.661 155.584 289.486 157.506C292.791 161.534 294.169 164.782 293.984 168.089C293.8 171.359 292.088 174.585 289.495 178.565C290.316 183.331 290.76 186.855 290.859 189.366C290.909 190.638 290.872 191.667 290.744 192.474C290.617 193.272 290.393 193.91 290.025 194.344C289.629 194.81 289.107 194.994 288.528 194.945C287.984 194.898 287.401 194.648 286.804 194.291C285.769 193.672 284.542 192.639 283.167 191.384C282.384 195.314 281.627 198.171 280.224 201.613C280.754 202.573 281.776 203.223 282.95 203.223H286.712C288.43 203.223 289.824 201.83 289.824 200.111C289.824 197.841 291.664 196 293.935 196H324Z" fill="#6F4AD9"/>
<path d="M264.416 196H265.028C265.055 195.799 265.082 195.601 265.11 195.407C265.155 195.089 265.202 194.78 265.249 194.485C264.952 195.119 264.675 195.619 264.416 196Z" fill="black"/>
<path d="M263.175 197.041C262.976 197.08 262.799 197.059 262.643 197H261.492C260.237 211.023 259.324 222.274 259.148 231.703C258.946 242.553 259.722 250.953 262.061 258.349L262.267 259H324V197H293.935C292.217 197 290.824 198.393 290.824 200.111C290.824 202.382 288.983 204.223 286.712 204.223H282.95C281.665 204.223 280.517 203.633 279.763 202.71C279.297 203.791 278.765 204.942 278.15 206.208C277.205 208.517 276.338 210.23 275.488 211.357C274.646 212.475 273.729 213.136 272.68 213.053C271.668 212.974 270.75 212.212 269.865 211.087C268.981 209.963 268.043 208.364 267.003 206.356C265.554 205.417 264.983 203.553 264.804 201.615C264.666 200.132 264.749 198.507 264.909 197H263.327C263.277 197.017 263.227 197.031 263.175 197.041Z" fill="#6F4AD9"/>
<path d="M260.488 197H242V215.175C242 217.66 244.015 219.675 246.5 219.675H250.303C252.796 219.675 254.816 221.696 254.816 224.188C254.816 226.68 252.796 228.701 250.303 228.701H246.5C244.015 228.701 242 230.715 242 233.201V258H260.907C258.678 250.616 257.951 242.272 258.149 231.685C258.325 222.239 259.237 210.981 260.488 197Z" fill="#6A095B"/>
<path d="M279.131 201.639C278.942 201.167 278.838 200.651 278.838 200.111C278.838 198.393 277.445 197 275.727 197H265.915C265.751 198.499 265.667 200.092 265.799 201.523C265.979 203.461 266.54 204.925 267.638 205.573L267.762 205.646L267.828 205.774C268.888 207.829 269.811 209.401 270.651 210.469C271.509 211.559 272.195 212.012 272.758 212.056C273.283 212.097 273.91 211.79 274.69 210.755C275.461 209.732 276.291 208.112 277.23 205.814L277.236 205.799L277.243 205.785C277.985 204.259 278.604 202.905 279.131 201.639Z" fill="#157D15"/>
</svg>
