<svg width="79" height="72" viewBox="0 0 79 72" fill="none" xmlns="http://www.w3.org/2000/svg">
<path d="M0 9V71.5H52.3354L52.6155 70.8116C54.7071 65.67 55.4771 58.2766 55.3271 47.3427C55.1936 37.6063 54.3331 25.1182 53.0621 9H51.2142L48.9902 14.6382L48.903 14.7169C46.847 16.5696 44.9797 18.1507 43.2063 19.1736C41.4261 20.2005 39.6819 20.6992 37.8944 20.2986C36.1171 19.9002 34.4034 18.6361 32.6246 16.3786C30.8603 14.1393 28.9933 10.8734 26.9079 6.36215C26.0647 7.93234 24.4071 9 22.5 9H0Z" fill="#6F4AD9"/>
<path d="M27.4132 4.93236L27.5893 5.38309L27.7652 5.83333C29.8585 10.3741 31.7029 13.5929 33.4101 15.7597C35.1207 17.9308 36.6543 18.9958 38.1131 19.3228C39.5617 19.6474 41.0424 19.2674 42.7067 18.3074C44.3542 17.357 46.1239 15.872 48.1463 14.0526L50.1392 9H40.5C37.7386 9 35.5 6.76143 35.5 4C35.5 1.79086 33.7091 0 31.5 0C29.2909 0 27.5 1.79086 27.5 4C27.5 4.31862 27.4702 4.63029 27.4132 4.93236Z" fill="#157D15"/>
<path d="M66 70.5V45.7006C66 42.6631 68.4624 40.2006 71.5 40.2006H75.3034C77.2435 40.2006 78.8162 38.6279 78.8162 36.6879C78.8162 34.7479 77.2435 33.1752 75.3034 33.1752H71.5C68.4624 33.1752 66 30.7127 66 27.6752V9H54.0652C55.3328 25.0798 56.1933 37.5738 56.327 47.329C56.4708 57.8157 55.7775 65.2018 53.8094 70.5H66Z" fill="#6A095B"/>
</svg>
