<svg width="82" height="62" viewBox="0 0 82 62" fill="none" xmlns="http://www.w3.org/2000/svg">
<path d="M21.1754 0.0410309C20.9764 0.0799408 20.7991 0.0588989 20.6435 0H19.492C18.2373 14.0227 17.3241 25.2745 17.1484 34.7034C16.9462 45.5529 17.7219 53.9529 20.0611 61.3492L20.2669 62H82V0H51.935C50.2166 0 48.8235 1.39305 48.8235 3.11147C48.8235 5.38217 46.9828 7.22293 44.7121 7.22293H40.9497C39.6646 7.22293 38.5172 6.63332 37.7632 5.70987C37.2968 6.79147 36.7651 7.94214 36.1497 9.20752C35.2054 11.5167 34.3378 13.2296 33.4885 14.3569C32.6464 15.4745 31.7292 16.1356 30.6798 16.0532C29.6685 15.9738 28.7502 15.2116 27.8654 14.0871C26.9813 12.9634 26.0435 11.3636 25.0027 9.35582C23.5536 8.41652 22.9832 6.55278 22.8037 4.61546C22.6663 3.13206 22.7488 1.50746 22.9093 0H21.3265C21.277 0.0172577 21.2266 0.0310211 21.1754 0.0410309Z" fill="#6F4AD9"/>
<path d="M18.488 0H0V18.1752C0 20.6604 2.01472 22.6752 4.5 22.6752H8.30344C10.7958 22.6752 12.8162 24.6956 12.8162 27.1879C12.8162 29.6802 10.7957 31.7006 8.30344 31.7006H4.5C2.01472 31.7006 0 33.7154 0 36.2006V61H18.9066C16.6781 53.6165 15.9513 45.2717 16.1485 34.6848C16.3246 25.2387 17.2374 13.9807 18.488 0Z" fill="#6A095B"/>
<path d="M37.1314 4.63902C36.9423 4.16676 36.8382 3.65126 36.8382 3.11147C36.8382 1.39305 35.4452 0 33.7268 0H23.9152C23.7513 1.49869 23.6669 3.09244 23.7995 4.52321C23.979 6.46123 24.5401 7.92484 25.6377 8.57306L25.7618 8.64629L25.8278 8.77425C26.8884 10.829 27.8109 12.4006 28.6513 13.4687C29.509 14.5588 30.1951 15.0121 30.7581 15.0563C31.2829 15.0975 31.9098 14.7903 32.6898 13.7551C33.4606 12.732 34.291 11.1124 35.2301 8.81445L35.2362 8.79944L35.2433 8.78487C35.9854 7.25934 36.6036 5.90521 37.1314 4.63902Z" fill="#157D15"/>
</svg>
