<svg width="67" height="78" viewBox="0 0 67 78" fill="none" xmlns="http://www.w3.org/2000/svg">
<path d="M22.5 77.5C24.3593 77.5 25.9223 76.2314 26.3707 74.5126C25 70.9999 23.9062 68.0369 24.0064 65.2393C24.1177 62.1339 25.6829 59.3122 29.5928 56.1468C28.0985 52.6723 27.6195 49.8373 28.2203 46.9442C28.8257 44.0293 30.5158 41.1189 33.2045 37.4803C32.7297 35.6211 32.4727 34.0609 32.5155 32.7941C32.5605 31.465 32.9392 30.3959 33.8059 29.6664C34.655 28.9518 35.8843 28.64 37.4565 28.6066C38.954 28.5748 40.8312 28.7946 43.1274 29.226C45.0621 25.2202 47.2249 23.364 49.9855 22.8366C51.3767 22.5708 52.881 22.6511 54.5201 22.9117C56.094 23.162 57.8262 23.5848 59.7315 24.0499L59.8169 24.0707C62.1792 23.2278 64.3018 22.6699 66.5 22.3477V0H0V77.5H22.5Z" fill="#6F4AD9"/>
<path d="M40.5 77.5H50.5337L52.8375 71.6591L53.3502 71.9908C57.3543 74.5811 61.964 75.625 66.5 75.7881V53.5C66.5 51.0147 64.4853 49 62 49H61.5C58.4624 49 56 46.5376 56 43.5C56 40.4624 58.4624 38 61.5 38H62C64.4853 38 66.5 35.9853 66.5 33.5V23.3587C64.3675 23.6819 62.3115 24.2349 60.0136 25.0625L59.872 25.1135L59.5163 25.0267L59.5161 25.0267C57.5919 24.557 55.8957 24.143 54.363 23.8993C52.7766 23.647 51.4023 23.584 50.1731 23.8188C47.7727 24.2774 45.7725 25.9047 43.8668 30.0007L43.7019 30.355L43.3182 30.2806C40.8709 29.8057 38.9509 29.5751 37.4777 29.6064C35.997 29.6378 35.0424 29.9328 34.4499 30.4315C33.875 30.9153 33.5542 31.666 33.515 32.8279C33.4754 33.9995 33.7258 35.524 34.2321 37.4597L34.2928 37.6919L34.1497 37.8845C31.3918 41.5948 29.7683 44.4082 29.1994 47.1475C28.6357 49.8623 29.0957 52.5698 30.6614 56.0948L30.819 56.4496L30.5144 56.6902C26.509 59.8546 25.1054 62.4952 25.0058 65.2751C24.9295 67.4027 25.6072 69.6597 26.6254 72.3825C27.133 70.159 29.1227 68.5 31.5 68.5C34.2614 68.5 36.5 70.7386 36.5 73.5C36.5 75.7091 38.2909 77.5 40.5 77.5Z" fill="#157D15"/>
<path d="M51.6086 77.5H52.9831C52.9076 76.546 52.8307 75.5795 52.7524 74.6003L51.6086 77.5Z" fill="black"/>
<path d="M53.6558 73.3527C53.7686 74.7607 53.8788 76.1429 53.9862 77.5H66.5V76.7887C62.1326 76.6359 57.6519 75.6894 53.6558 73.3527Z" fill="#6A095B"/>
</svg>
