<svg width="92" height="86" viewBox="0 0 92 86" fill="none" xmlns="http://www.w3.org/2000/svg">
<path d="M10.5 76.8101V78H28.5776C28.7187 76.4287 28.8638 74.8233 29.0124 73.1826C26.1959 74.292 21.1266 75.9329 15.3621 76.5574C13.7865 76.7281 12.1548 76.8233 10.5 76.8101Z" fill="#6A095B"/>
<path d="M29.6248 77.5195L29.5817 78H29.79C29.7281 77.8483 29.6735 77.6864 29.6248 77.5195Z" fill="black"/>
<path d="M30.9247 78H31.0965C31.1927 77.9309 31.3447 77.7871 31.5493 77.4956C31.8595 77.0536 32.2312 76.359 32.6683 75.3332C33.1082 74.3009 33.4037 73.6412 33.5887 73.3073C33.635 73.2237 33.685 73.1408 33.7375 73.0731C33.763 73.0403 33.8026 72.9932 33.856 72.95C33.8974 72.9164 34.0208 72.8236 34.2037 72.825C34.4371 72.8268 34.5836 72.9726 34.6487 73.0811C34.7036 73.1725 34.72 73.2613 34.7263 73.3024C34.7402 73.3935 34.7368 73.49 34.732 73.5639C34.7128 73.8587 34.6202 74.3909 34.5081 75.035L34.4994 75.085C34.3802 75.7695 34.2331 76.6154 34.0995 77.5491C34.0782 77.6975 34.0574 77.8479 34.037 78H43.7268C45.9167 78 47.7067 79.7121 47.8313 81.8707C48.9678 78.8297 49.628 76.0962 50.3567 72.3159L50.5274 71.4306L51.188 72.0443C52.8423 73.5811 54.2231 74.7785 55.317 75.4324C55.8658 75.7605 56.293 75.9208 56.6131 75.9482C56.899 75.9726 57.0951 75.8938 57.2626 75.6966C57.4568 75.4681 57.6407 75.0442 57.756 74.3177C57.8697 73.6011 57.9086 72.6443 57.8596 71.4054C57.7617 68.9284 57.3161 65.3947 56.4763 60.5412L56.4427 60.3471L56.5505 60.1823C59.2082 56.1187 60.8159 53.0524 60.9852 50.0326C61.1526 47.0469 59.914 44.0012 56.584 39.9844L56.452 39.8251L56.4711 39.6191C56.6569 37.615 56.7704 35.9126 56.7154 34.5076C56.6602 33.0957 56.4358 32.0462 55.9943 31.3098C55.5705 30.603 54.9194 30.1393 53.8799 29.9464C52.8192 29.7496 51.362 29.8382 49.3749 30.2714C44.2118 32.1168 41.516 33.1811 40.0684 33.8904C39.3421 34.2463 38.9648 34.4965 38.7526 34.6891C38.5623 34.8616 38.4969 34.9932 38.4252 35.1728L37.7211 36.9365L37.4654 35.0547C37.1374 32.6412 36.7715 30.6104 36.2347 28.9424C35.6988 27.277 35.0023 26.0056 34.0339 25.0842C32.1142 23.2577 28.9524 22.6528 23.2163 23.5271L23.1536 23.5366L23.0904 23.5302C17.7159 22.9838 13.9483 22.8214 10.5 23.2245V33.5C10.5 36.5376 8.03757 39 5 39H4.5C2.01472 39 0 41.0147 0 43.5C0 45.9853 2.01472 48 4.5 48H5C8.03757 48 10.5 50.4624 10.5 53.5V75.8101C12.1107 75.8233 13.7058 75.731 15.2544 75.5632C21.4642 74.8905 26.8618 73.0112 29.3909 71.9496L30.0844 71.6584V72.412L30.0844 72.4176L30.0845 72.4406C30.0846 72.4611 30.0848 72.4918 30.0852 72.5317C30.0861 72.6115 30.0878 72.7281 30.0912 72.874C30.098 73.166 30.1116 73.5741 30.1389 74.038C30.1939 74.9738 30.3028 76.1062 30.5132 76.9702C30.6199 77.4085 30.7422 77.7315 30.8677 77.9229C30.8889 77.9552 30.9081 77.9804 30.9247 78Z" fill="#157D15"/>
<path d="M92 78V0H10.5V22.218C13.9987 21.822 17.8012 21.9891 23.1285 22.5289C28.878 21.6604 32.4506 22.1974 34.7232 24.3597C35.855 25.4366 36.6209 26.8782 37.1866 28.6361C37.6605 30.1086 38.0008 31.8255 38.2928 33.7727C38.6013 33.5374 39.0268 33.2872 39.6284 32.9924C41.1373 32.2531 43.8934 31.1682 49.0686 29.3189L49.0986 29.3082L49.1298 29.3013C51.1819 28.8515 52.8022 28.7294 54.0623 28.9632C55.349 29.2019 56.2635 29.8141 56.852 30.7957C57.4227 31.7477 57.6571 32.999 57.7147 34.4685C57.7705 35.8944 57.6608 37.5844 57.4857 39.506C60.7914 43.5343 62.169 46.7822 61.9836 50.0886C61.8003 53.3595 60.0875 56.585 57.4951 60.5647C58.3156 65.3311 58.7596 68.8554 58.8588 71.3659C58.9091 72.6376 58.8717 73.6669 58.7436 74.4744C58.617 75.272 58.3935 75.9101 58.0247 76.3442C57.6292 76.8096 57.1065 76.9939 56.5281 76.9445C55.9838 76.8981 55.4009 76.6477 54.8038 76.2908C53.7686 75.6719 52.542 74.6393 51.1666 73.3842C50.3842 77.314 49.6266 80.1711 48.2237 83.6127C48.7535 84.5727 49.7757 85.2229 50.9497 85.2229H54.7121C56.4305 85.2229 57.8235 83.8299 57.8235 82.1115C57.8235 79.8408 59.6643 78 61.935 78H92Z" fill="#6F4AD9"/>
<path d="M32.4162 78H33.0283C33.0546 77.7988 33.0818 77.6011 33.1096 77.4075C33.1552 77.0886 33.2023 76.78 33.2494 76.4848C32.9519 77.1189 32.6753 77.619 32.4162 78Z" fill="black"/>
</svg>
